<?xml version="1.0" encoding="UTF-8"?>
<svg xmlns="http://www.w3.org/2000/svg" xmlns:xlink="http://www.w3.org/1999/xlink" width="32px" height="32px" viewBox="0 0 32 32" version="1.1">
<g id="surface1">
<path style=" stroke:none;fill-rule:nonzero;fill:rgb(0%,0%,0%);fill-opacity:1;" d="M 17.925781 32.023438 C 11.949219 32.023438 5.988281 32.023438 0.0234375 32.023438 C 0.0234375 21.359375 0.0234375 10.691406 0.0234375 0.0234375 C 10.691406 0.0234375 21.359375 0.0234375 32.023438 0.0234375 C 32.023438 10.691406 32.023438 21.359375 32.023438 32.023438 C 27.328125 32.023438 22.632812 32.023438 17.925781 32.023438 M 22.519531 15.230469 C 23.875 14.027344 25.230469 12.828125 26.585938 11.625 C 26.613281 11.597656 26.640625 11.574219 26.664062 11.546875 C 26.75 11.449219 26.765625 11.335938 26.71875 11.21875 C 26.675781 11.105469 26.59375 11.035156 26.46875 11.019531 C 26.421875 11.011719 26.371094 11.011719 26.320312 11.011719 C 24.863281 11.011719 23.402344 11.015625 21.945312 11.011719 C 21.789062 11.011719 21.667969 11.054688 21.554688 11.160156 C 19.898438 12.632812 18.242188 14.105469 16.578125 15.570312 C 16.367188 15.753906 16.347656 15.992188 16.582031 16.183594 C 17.144531 16.636719 17.691406 17.109375 18.242188 17.570312 C 18.441406 17.738281 18.644531 17.910156 18.84375 18.078125 C 19.007812 18.207031 19.160156 18.207031 19.316406 18.070312 C 19.332031 18.054688 19.347656 18.042969 19.363281 18.027344 C 20.410156 17.097656 21.457031 16.171875 22.519531 15.230469 M 14.222656 14.714844 C 13.925781 14.464844 13.628906 14.214844 13.332031 13.96875 C 13.140625 13.808594 12.996094 13.808594 12.8125 13.972656 C 10.378906 16.132812 7.945312 18.292969 5.507812 20.449219 C 5.476562 20.476562 5.445312 20.503906 5.417969 20.535156 C 5.332031 20.636719 5.3125 20.75 5.363281 20.875 C 5.417969 20.996094 5.511719 21.0625 5.644531 21.070312 C 5.683594 21.070312 5.71875 21.070312 5.757812 21.070312 C 7.160156 21.070312 8.566406 21.066406 9.96875 21.074219 C 10.140625 21.074219 10.269531 21.023438 10.394531 20.910156 C 12.015625 19.46875 13.640625 18.027344 15.265625 16.585938 C 15.367188 16.496094 15.476562 16.410156 15.574219 16.3125 C 15.707031 16.175781 15.703125 15.976562 15.566406 15.84375 C 15.542969 15.820312 15.515625 15.800781 15.492188 15.777344 C 15.074219 15.429688 14.65625 15.078125 14.222656 14.714844 M 16.835938 14.496094 C 17.328125 14.0625 17.824219 13.632812 18.320312 13.199219 C 18.507812 13.03125 18.507812 12.835938 18.320312 12.675781 C 17.6875 12.144531 17.054688 11.617188 16.425781 11.085938 C 16.265625 10.953125 16.117188 10.953125 15.964844 11.085938 C 15.199219 11.753906 14.433594 12.421875 13.667969 13.089844 C 13.480469 13.253906 13.484375 13.453125 13.675781 13.613281 C 14.304688 14.140625 14.933594 14.667969 15.5625 15.195312 C 15.734375 15.339844 15.867188 15.339844 16.039062 15.191406 C 16.300781 14.964844 16.558594 14.734375 16.835938 14.496094 M 17.058594 20.046875 C 17.457031 19.691406 17.859375 19.339844 18.253906 18.984375 C 18.445312 18.8125 18.441406 18.605469 18.246094 18.441406 C 17.625 17.917969 17.003906 17.394531 16.378906 16.875 C 16.207031 16.730469 16.058594 16.730469 15.890625 16.878906 C 15.15625 17.527344 14.425781 18.179688 13.691406 18.828125 C 13.5 19 13.5 19.207031 13.695312 19.371094 C 14.320312 19.898438 14.945312 20.421875 15.574219 20.945312 C 15.609375 20.976562 15.644531 21.003906 15.6875 21.019531 C 15.828125 21.078125 15.945312 21.035156 16.054688 20.9375 C 16.382812 20.644531 16.714844 20.351562 17.058594 20.046875 Z M 17.058594 20.046875 "/>
<path style=" stroke:none;fill-rule:nonzero;fill:rgb(82.352942%,97.254902%,1.568628%);fill-opacity:1;" d="M 22.511719 15.238281 C 21.457031 16.171875 20.410156 17.097656 19.363281 18.027344 C 19.347656 18.042969 19.332031 18.054688 19.316406 18.070312 C 19.160156 18.207031 19.007812 18.207031 18.84375 18.078125 C 18.644531 17.910156 18.441406 17.738281 18.242188 17.570312 C 17.691406 17.109375 17.144531 16.636719 16.582031 16.183594 C 16.347656 15.992188 16.367188 15.753906 16.578125 15.570312 C 18.242188 14.105469 19.898438 12.632812 21.554688 11.160156 C 21.667969 11.054688 21.789062 11.011719 21.945312 11.011719 C 23.402344 11.015625 24.863281 11.011719 26.320312 11.011719 C 26.371094 11.011719 26.421875 11.011719 26.46875 11.019531 C 26.59375 11.035156 26.675781 11.105469 26.71875 11.21875 C 26.765625 11.335938 26.75 11.449219 26.664062 11.546875 C 26.640625 11.574219 26.613281 11.597656 26.585938 11.625 C 25.230469 12.828125 23.875 14.027344 22.511719 15.238281 Z M 22.511719 15.238281 "/>
<path style=" stroke:none;fill-rule:nonzero;fill:rgb(82.352942%,97.254902%,1.568628%);fill-opacity:1;" d="M 14.230469 14.71875 C 14.65625 15.078125 15.074219 15.429688 15.492188 15.777344 C 15.515625 15.800781 15.542969 15.820312 15.566406 15.84375 C 15.703125 15.976562 15.707031 16.175781 15.574219 16.3125 C 15.476562 16.410156 15.367188 16.496094 15.265625 16.585938 C 13.640625 18.027344 12.015625 19.46875 10.394531 20.910156 C 10.269531 21.023438 10.140625 21.074219 9.96875 21.074219 C 8.566406 21.066406 7.160156 21.070312 5.757812 21.070312 C 5.71875 21.070312 5.683594 21.070312 5.644531 21.070312 C 5.511719 21.0625 5.417969 20.996094 5.363281 20.875 C 5.3125 20.75 5.332031 20.636719 5.417969 20.535156 C 5.445312 20.503906 5.476562 20.476562 5.507812 20.449219 C 7.945312 18.292969 10.378906 16.132812 12.8125 13.972656 C 12.996094 13.808594 13.140625 13.808594 13.332031 13.96875 C 13.628906 14.214844 13.925781 14.464844 14.230469 14.71875 Z M 14.230469 14.71875 "/>
<path style=" stroke:none;fill-rule:nonzero;fill:rgb(82.352942%,97.254902%,1.568628%);fill-opacity:1;" d="M 16.828125 14.503906 C 16.558594 14.734375 16.300781 14.964844 16.039062 15.191406 C 15.867188 15.339844 15.734375 15.339844 15.5625 15.195312 C 14.933594 14.667969 14.304688 14.140625 13.675781 13.613281 C 13.484375 13.453125 13.480469 13.253906 13.667969 13.089844 C 14.433594 12.421875 15.199219 11.753906 15.964844 11.085938 C 16.117188 10.953125 16.265625 10.953125 16.425781 11.085938 C 17.054688 11.617188 17.6875 12.144531 18.320312 12.675781 C 18.507812 12.835938 18.507812 13.03125 18.320312 13.199219 C 17.824219 13.632812 17.328125 14.0625 16.828125 14.503906 Z M 16.828125 14.503906 "/>
<path style=" stroke:none;fill-rule:nonzero;fill:rgb(82.352942%,97.254902%,1.568628%);fill-opacity:1;" d="M 17.050781 20.050781 C 16.714844 20.351562 16.382812 20.644531 16.054688 20.9375 C 15.945312 21.035156 15.828125 21.078125 15.6875 21.019531 C 15.644531 21.003906 15.609375 20.976562 15.574219 20.945312 C 14.945312 20.421875 14.320312 19.898438 13.695312 19.371094 C 13.5 19.207031 13.5 19 13.691406 18.828125 C 14.425781 18.179688 15.15625 17.527344 15.890625 16.878906 C 16.058594 16.730469 16.207031 16.730469 16.378906 16.875 C 17.003906 17.394531 17.625 17.917969 18.246094 18.441406 C 18.441406 18.605469 18.445312 18.8125 18.253906 18.984375 C 17.859375 19.339844 17.457031 19.691406 17.050781 20.050781 Z M 17.050781 20.050781 "/>
</g>
</svg>
